<?xml version="1.0" encoding="UTF-8"?>
<svg width="32" height="32" fill="none" version="1.1" viewBox="0 0 512 512" xmlns="http://www.w3.org/2000/svg"><g clip-path="url(#l)"><rect width="512" height="512" rx="64" fill="url(#g)"/><ellipse cx="256.5" cy="-26.5" rx="511.5" ry="241.5" fill="url(#f)"/><g clip-rule="evenodd" fill-rule="evenodd" filter="url(#k)"><path d="m243.87 66.58c-69.94 6.6365-113.54 66.305-108.47 148.44 3.345 54.163 25.185 92.212 63.635 110.86 30.289 14.691 73.72 16.016 99.679 3.043 18.46-9.226 33.654-24.329 42.898-42.641 0.879-1.742 1.826-3.167 2.103-3.167 0.666 0 0.662 33.464-5e-3 46.08-2.537 47.996-19.585 75.628-52.882 85.714-17.471 5.293-42.156 5.819-61.552 1.312-26.331-6.118-44.295-22.137-49.782-44.392l-1.418-5.751-16.586-9e-3 -16.585-0.01 0.337 3.629c4.449 47.87 51.436 78.65 117.73 77.123 65.091-1.5 101.16-30.87 111.43-90.736 2.912-16.969 2.75-8.667 2.943-151.17l0.179-131.2h-33.31v23.04c0 13.738-0.191 23.04-0.473 23.04-0.26 0-1.64-2.217-3.066-4.926-3.508-6.663-7.514-12.125-13.515-18.424-22.015-23.108-49.731-33.042-83.298-29.857zm26.214 27.86c37.926 5.0105 64.743 36.407 72.053 84.355 8.496 55.734-11.404 104.8-50.204 123.78-15.645 7.655-36.015 9.706-55.173 5.555-51.91-11.247-79.466-71.313-64.516-140.63 8.829-40.932 38.554-70.271 74.442-73.475 5.604-0.5002 18.177-0.28 23.398 0.4096z" fill="#66390C"/><path d="m243.87 66.58c-69.94 6.6365-113.54 66.305-108.47 148.44 3.345 54.163 25.185 92.212 63.635 110.86 30.289 14.691 73.72 16.016 99.679 3.043 18.46-9.226 33.654-24.329 42.898-42.641 0.879-1.742 1.826-3.167 2.103-3.167 0.666 0 0.662 33.464-5e-3 46.08-2.537 47.996-19.585 75.628-52.882 85.714-17.471 5.293-42.156 5.819-61.552 1.312-26.331-6.118-44.295-22.137-49.782-44.392l-1.418-5.751-16.586-9e-3 -16.585-0.01 0.337 3.629c4.449 47.87 51.436 78.65 117.73 77.123 65.091-1.5 101.16-30.87 111.43-90.736 2.912-16.969 2.75-8.667 2.943-151.17l0.179-131.2h-33.31v23.04c0 13.738-0.191 23.04-0.473 23.04-0.26 0-1.64-2.217-3.066-4.926-3.508-6.663-7.514-12.125-13.515-18.424-22.015-23.108-49.731-33.042-83.298-29.857zm26.214 27.86c37.926 5.0105 64.743 36.407 72.053 84.355 8.496 55.734-11.404 104.8-50.204 123.78-15.645 7.655-36.015 9.706-55.173 5.555-51.91-11.247-79.466-71.313-64.516-140.63 8.829-40.932 38.554-70.271 74.442-73.475 5.604-0.5002 18.177-0.28 23.398 0.4096z" fill="url(#a)"/></g><g filter="url(#j)"><path d="m343.92 284.32c0.456 6.094 0.386 33.686-0.205 44.876-2.537 47.996-19.585 75.628-52.882 85.714-17.471 5.293-42.156 5.819-61.552 1.312-26.331-6.118-44.295-22.137-49.782-44.392l-1.418-5.751-33.171-0.019 0.337 3.629c4.449 47.87 51.436 78.65 117.73 77.123 65.091-1.5 101.16-30.87 111.43-90.736 0.424-2.474 0.784-4.411 1.088-6.357 1.784-11.398 1.69-23.089 1.855-144.81l0.179-131.2h-33.31v23.04c0 10.685-0.116 18.686-0.299 21.715-8e-3 0.12-0.015 0.233-0.023 0.338-0.046 0.647-0.097 0.987-0.151 0.987-0.092 0-0.324-0.277-0.649-0.755-0.062-0.093-0.128-0.193-0.197-0.299-0.587-0.904-1.396-2.306-2.22-3.872-3.508-6.663-7.514-12.125-13.515-18.424-22.015-23.108-49.731-33.042-83.298-29.857-69.94 6.6365-113.54 66.305-108.47 148.44 3.345 54.163 25.185 92.212 63.635 110.86 30.289 14.691 73.72 16.016 99.679 3.043 18.46-9.226 33.654-24.329 42.898-42.641 0.44-0.871 0.896-1.662 1.277-2.236 0.049-0.074 0.097-0.144 0.143-0.21 0.314-0.45 0.562-0.721 0.683-0.721 0.068 0 0.129 0.347 0.182 0.982 6e-3 0.071 0.012 0.145 0.018 0.222zm1.305-209.61v22.04c0 6.8726-0.048 12.64-0.131 16.693-0.042 2.024-0.092 3.629-0.15 4.732-0.029 0.548-0.061 0.99-0.097 1.303-0.017 0.15-0.039 0.304-0.07 0.434-0.013 0.057-0.041 0.167-0.096 0.283-0.027 0.055-0.086 0.169-0.195 0.282-0.11 0.115-0.358 0.313-0.734 0.313-0.329 0-0.56-0.155-0.625-0.199-0.098-0.067-0.178-0.142-0.232-0.197-0.113-0.113-0.225-0.252-0.33-0.391-0.214-0.285-0.473-0.675-0.757-1.131-0.572-0.919-1.286-2.172-2.007-3.542-3.459-6.57-7.407-11.958-13.354-18.2-21.79-22.872-49.198-32.71-82.48-29.552-34.69 3.2917-62.813 19.724-81.65 45.503-18.846 25.791-28.439 60.999-25.914 101.88 3.329 53.915 25.039 91.575 63.073 110.02 14.997 7.274 33.285 11.253 51.057 11.796 17.781 0.542 34.952-2.357 47.739-8.748 18.269-9.13 33.306-24.078 42.453-42.197 0.453-0.897 0.928-1.724 1.336-2.339 0.202-0.303 0.402-0.578 0.586-0.787 0.09-0.103 0.2-0.216 0.323-0.313 0.075-0.058 0.354-0.277 0.75-0.277 0.568 0 0.838 0.429 0.879 0.495 0.079 0.126 0.119 0.248 0.138 0.309 0.042 0.138 0.069 0.293 0.089 0.43 0.043 0.289 0.079 0.687 0.11 1.163 0.064 0.961 0.116 2.334 0.157 4.004 0.084 3.346 0.125 7.933 0.124 12.908-1e-3 9.946-0.169 21.488-0.503 27.824-1.274 24.094-6.193 43.184-15.054 57.545-8.877 14.389-21.67 23.964-38.537 29.073-17.654 5.348-42.518 5.872-62.068 1.329-26.618-6.184-44.931-22.432-50.527-45.127l-1.231-4.991-31.29-0.017 0.236 2.536c4.377 47.101 50.653 77.737 116.71 76.215 32.407-0.746 57.455-8.428 75.665-23.256 18.201-14.82 29.698-36.883 34.805-66.649 0.422-2.457 0.779-4.377 1.081-6.306 1.774-11.305 1.683-22.903 1.848-144.69l0.178-130.2h-31.309z" clip-rule="evenodd" fill="url(#e)" fill-rule="evenodd"/></g><g filter="url(#i)"><path d="m246.6 93.034c5.672-0.5063 18.319-0.2857 23.618 0.4142 38.504 5.0869 65.557 36.962 72.91 85.196 8.537 55.997-11.426 105.59-50.753 124.83-15.872 7.766-36.475 9.826-55.824 5.634-52.692-11.416-80.288-72.241-65.282-141.82 8.901-41.267 38.919-71.009 75.331-74.26zm95.539 85.761c-7.309-47.948-34.127-79.345-72.052-84.355-5.221-0.6896-17.794-0.9098-23.398-0.4096-35.888 3.2041-65.614 32.543-74.442 73.475-14.95 69.317 12.605 129.38 64.516 140.63 19.158 4.151 39.528 2.1 55.173-5.555 38.8-18.984 58.7-68.051 50.203-123.78z" clip-rule="evenodd" fill="url(#d)" fill-rule="evenodd"/></g><mask id="h" x="135" y="66" width="243" height="381" style="mask-type:alpha" maskUnits="userSpaceOnUse"><path d="m243.87 66.58c-69.94 6.6365-113.54 66.305-108.47 148.44 3.345 54.163 25.185 92.212 63.635 110.86 30.289 14.691 73.72 16.016 99.679 3.043 18.46-9.226 33.654-24.329 42.898-42.641 0.879-1.742 1.826-3.167 2.103-3.167 0.666 0 0.662 33.464-5e-3 46.08-2.537 47.996-19.585 75.628-52.882 85.714-17.471 5.293-42.156 5.819-61.552 1.312-26.331-6.118-44.295-22.137-49.782-44.392l-1.418-5.751-16.586-9e-3 -16.585-0.01 0.337 3.629c4.449 47.87 51.436 78.65 117.73 77.123 65.091-1.5 101.16-30.87 111.43-90.736 2.912-16.969 2.75-8.667 2.943-151.17l0.179-131.2h-33.31v23.04c0 13.738-0.191 23.04-0.473 23.04-0.26 0-1.64-2.217-3.066-4.926-3.508-6.663-7.514-12.125-13.515-18.424-22.015-23.108-49.731-33.042-83.298-29.857zm26.214 27.86c37.926 5.0105 64.743 36.407 72.053 84.355 8.496 55.734-11.404 104.8-50.204 123.78-15.645 7.655-36.015 9.706-55.173 5.555-51.91-11.247-79.466-71.313-64.516-140.63 8.829-40.932 38.554-70.271 74.442-73.475 5.604-0.5002 18.177-0.28 23.398 0.4096z" clip-rule="evenodd" fill="#66390C" fill-rule="evenodd"/><path d="m243.87 66.58c-69.94 6.6365-113.54 66.305-108.47 148.44 3.345 54.163 25.185 92.212 63.635 110.86 30.289 14.691 73.72 16.016 99.679 3.043 18.46-9.226 33.654-24.329 42.898-42.641 0.879-1.742 1.826-3.167 2.103-3.167 0.666 0 0.662 33.464-5e-3 46.08-2.537 47.996-19.585 75.628-52.882 85.714-17.471 5.293-42.156 5.819-61.552 1.312-26.331-6.118-44.295-22.137-49.782-44.392l-1.418-5.751-16.586-9e-3 -16.585-0.01 0.337 3.629c4.449 47.87 51.436 78.65 117.73 77.123 65.091-1.5 101.16-30.87 111.43-90.736 2.912-16.969 2.75-8.667 2.943-151.17l0.179-131.2h-33.31v23.04c0 13.738-0.191 23.04-0.473 23.04-0.26 0-1.64-2.217-3.066-4.926-3.508-6.663-7.514-12.125-13.515-18.424-22.015-23.108-49.731-33.042-83.298-29.857zm26.214 27.86c37.926 5.0105 64.743 36.407 72.053 84.355 8.496 55.734-11.404 104.8-50.204 123.78-15.645 7.655-36.015 9.706-55.173 5.555-51.91-11.247-79.466-71.313-64.516-140.63 8.829-40.932 38.554-70.271 74.442-73.475 5.604-0.5002 18.177-0.28 23.398 0.4096z" clip-rule="evenodd" fill="url(#a)" fill-rule="evenodd"/></mask><g mask="url(#h)"><ellipse cx="255.5" cy="-28.5" rx="511.5" ry="241.5" fill="url(#c)"/></g></g><rect x="1.25" y="1.25" width="509.5" height="509.5" rx="62.75" stroke="url(#b)" stroke-width="2.5"/><defs><filter id="k" x="135" y="66" width="242.53" height="380.86" color-interpolation-filters="sRGB" filterUnits="userSpaceOnUse"><feFlood flood-opacity="0" result="BackgroundImageFix"/><feBlend in="SourceGraphic" in2="BackgroundImageFix" result="shape"/><feColorMatrix in="SourceAlpha" result="hardAlpha" values="0 0 0 0 0 0 0 0 0 0 0 0 0 0 0 0 0 0 127 0"/><feOffset/><feGaussianBlur stdDeviation="10"/><feComposite in2="hardAlpha" k2="-1" k3="1" operator="arithmetic"/><feColorMatrix values="0 0 0 0 0 0 0 0 0 0 0 0 0 0 0 0 0 0 0.25 0"/><feBlend in2="shape" result="effect1_innerShadow_121_76"/></filter><filter id="j" x="135" y="66" width="242.53" height="380.86" color-interpolation-filters="sRGB" filterUnits="userSpaceOnUse"><feFlood flood-opacity="0" result="BackgroundImageFix"/><feBlend in="SourceGraphic" in2="BackgroundImageFix" result="shape"/><feColorMatrix in="SourceAlpha" result="hardAlpha" values="0 0 0 0 0 0 0 0 0 0 0 0 0 0 0 0 0 0 127 0"/><feOffset/><feGaussianBlur stdDeviation="10"/><feComposite in2="hardAlpha" k2="-1" k3="1" operator="arithmetic"/><feColorMatrix values="0 0 0 0 0 0 0 0 0 0 0 0 0 0 0 0 0 0 0.25 0"/><feBlend in2="shape" result="effect1_innerShadow_121_76"/></filter><filter id="i" x="167.2" y="92.758" width="177.87" height="218.48" color-interpolation-filters="sRGB" filterUnits="userSpaceOnUse"><feFlood flood-opacity="0" result="BackgroundImageFix"/><feBlend in="SourceGraphic" in2="BackgroundImageFix" result="shape"/><feColorMatrix in="SourceAlpha" result="hardAlpha" values="0 0 0 0 0 0 0 0 0 0 0 0 0 0 0 0 0 0 127 0"/><feOffset/><feGaussianBlur stdDeviation="10"/><feComposite in2="hardAlpha" k2="-1" k3="1" operator="arithmetic"/><feColorMatrix values="0 0 0 0 0 0 0 0 0 0 0 0 0 0 0 0 0 0 0.25 0"/><feBlend in2="shape" result="effect1_innerShadow_121_76"/></filter><linearGradient id="g" x1="256" x2="256" y2="512" gradientUnits="userSpaceOnUse"><stop stop-color="#EFEDDE" offset="0"/><stop stop-color="#E6E1C3" offset="1"/></linearGradient><linearGradient id="f" x1="256" x2="256" y1="215" y2="18" gradientUnits="userSpaceOnUse"><stop stop-color="#fff" stop-opacity=".63" offset="0"/><stop stop-color="#fff" stop-opacity="0" offset="1"/></linearGradient><radialGradient id="a" cx="0" cy="0" r="1" gradientTransform="translate(256 207.5) rotate(90) scale(151 174.32)" gradientUnits="userSpaceOnUse"><stop stop-color="#9A5610" offset="0"/><stop stop-color="#6F3E0D" offset="1"/></radialGradient><linearGradient id="e" x1="256.26" x2="256.26" y1="66" y2="446.86" gradientUnits="userSpaceOnUse"><stop stop-color="#fff" stop-opacity=".41" offset="0"/><stop stop-opacity=".34" offset=".72396"/><stop stop-color="#fff" stop-opacity=".34" offset=".77414"/><stop stop-color="#111" stop-opacity=".34453" offset="1"/></linearGradient><linearGradient id="d" x1="256.14" x2="256.14" y1="92.758" y2="311.24" gradientUnits="userSpaceOnUse"><stop stop-opacity=".28" offset="0"/><stop stop-color="#fff" stop-opacity=".35" offset="1"/></linearGradient><linearGradient id="c" x1="255" x2="255" y1="213" y2="16" gradientUnits="userSpaceOnUse"><stop stop-color="#fff" stop-opacity=".17" offset="0"/><stop stop-color="#fff" stop-opacity="0" offset="1"/></linearGradient><linearGradient id="b" x1="256" x2="256" y2="512" gradientUnits="userSpaceOnUse"><stop stop-color="#E4E3D6" offset="0"/><stop stop-color="#D5D1B6" offset="1"/></linearGradient><clipPath id="l"><rect width="512" height="512" rx="64" fill="#fff"/></clipPath></defs></svg>
